<svg height="512" viewBox="0 0 512 512" width="512" xmlns="http://www.w3.org/2000/svg" xmlns:xlink="http://www.w3.org/1999/xlink"><linearGradient id="New_Gradient_Swatch_22" gradientUnits="userSpaceOnUse" x1="44.686" x2="419.314" y1="443.313" y2="68.686"><stop offset=".011" stop-color="#dcdce3"/><stop offset="1" stop-color="#ededf1"/></linearGradient><linearGradient id="New_Gradient_Swatch_3" gradientUnits="userSpaceOnUse" x1="42.686" x2="417.314" y1="441.313" y2="66.686"><stop offset=".011" stop-color="#606082"/><stop offset="1" stop-color="#83839e"/></linearGradient><linearGradient id="New_Gradient_Swatch_11" gradientUnits="userSpaceOnUse" x1="251.514" x2="475.098" y1="364.486" y2="140.902"><stop offset=".011" stop-color="#60c6be"/><stop offset="1" stop-color="#80d1cb"/></linearGradient><g id="_28-_QA" data-name="28- QA"><g id="gradient"><g id="gradient-2" data-name="gradient"><rect fill="url(#New_Gradient_Swatch_22)" height="496" rx="16" width="272" x="96" y="8"/><path d="m96 63.956h272v376.087h-272z" fill="url(#New_Gradient_Swatch_3)"/><g fill="#9595ac"><path d="m250.043 484.021h-34.956a12 12 0 1 1 0-24h34.956a12 12 0 1 1 0 24z"/><circle cx="232" cy="39.804" r="12"/></g></g><path d="m231.5 206.63-13.2-10.556a43.838 43.838 0 0 0 1.7-12.074v-32a44 44 0 0 0 -88 0v32a43.977 43.977 0 0 0 73.529 32.591l10.971 8.779a12 12 0 1 0 15-18.74zm-55.5-2.63a20.023 20.023 0 0 1 -20-20v-32a20 20 0 0 1 40 0v26.233l-4.5-3.6a12 12 0 1 0 -15 18.737l9.729 7.783a19.854 19.854 0 0 1 -10.229 2.847z" fill="#f9cd55"/><path d="m448 132h-144a44.049 44.049 0 0 0 -44 44v192a12 12 0 0 0 18.656 9.984l44.977-29.984h124.367a44.049 44.049 0 0 0 44-44v-128a44.049 44.049 0 0 0 -44-44z" fill="url(#New_Gradient_Swatch_11)"/><path d="m376 180a44.049 44.049 0 0 0 -44 44v64a12 12 0 0 0 24 0v-20h40v20a12 12 0 0 0 24 0v-64a44.049 44.049 0 0 0 -44-44zm-20 64v-20a20 20 0 0 1 40 0v20z" fill="#eff9f8"/></g></g></svg>